<svg xmlns="http://www.w3.org/2000/svg" width="220" height="80.858" viewBox="0 0 220 80.858">
  <g id="Gel_Package_-_LOGO" data-name="Gel Package - LOGO" transform="translate(-316.787 -489.504)">
    <g id="Group_2" data-name="Group 2" transform="translate(316.787 512.886)">
      <path id="Path_1" data-name="Path 1" d="M316.935,631.707a11.481,11.481,0,0,1,.369-2.1,8.342,8.342,0,0,1,1.163-2.586,7.728,7.728,0,0,1,2.234-2.179,6.408,6.408,0,0,1,3.584-.923,10.363,10.363,0,0,1,3.841.647,8.167,8.167,0,0,1,2.678,1.662,6.444,6.444,0,0,1,1.551,2.29,6.833,6.833,0,0,1,.5,2.493,7.91,7.91,0,0,1-.185,1.587,5.08,5.08,0,0,1-.74,1.736,6.228,6.228,0,0,1-1.551,1.589,7.376,7.376,0,0,1-2.659,1.144,8.9,8.9,0,0,1,2.881,1.165,7.186,7.186,0,0,1,1.81,1.643,5.8,5.8,0,0,1,.942,1.81,5.947,5.947,0,0,1,.276,1.7,6.055,6.055,0,0,1-.794,3.1,7.28,7.28,0,0,1-2.124,2.307,10.06,10.06,0,0,1-3.047,1.441,12.56,12.56,0,0,1-3.527.5,6.459,6.459,0,0,1-3.656-.959,7.537,7.537,0,0,1-2.253-2.253,8.6,8.6,0,0,1-1.127-2.64,9.96,9.96,0,0,1-.314-2.088,1.776,1.776,0,1,1,1.774,1.774H318.3a7.624,7.624,0,0,0,.832,2.141,6.982,6.982,0,0,0,1.367,1.717,6.569,6.569,0,0,0,1.736,1.146,4.587,4.587,0,0,0,1.9.424,4.713,4.713,0,0,0,1.791-.405,5.6,5.6,0,0,0,1.81-1.237,7.049,7.049,0,0,0,1.4-2.088,7.17,7.17,0,0,0,.573-2.992,6.005,6.005,0,0,0-.369-2.031,6.076,6.076,0,0,0-1.089-1.884,5.822,5.822,0,0,0-1.736-1.384,4.8,4.8,0,0,0-2.272-.537h-1.182v-.739h1.441a3.93,3.93,0,0,0,2.05-.571,4.7,4.7,0,0,0,1.367-1.33,5.507,5.507,0,0,0,.776-1.755,7.951,7.951,0,0,0,.24-1.92,9.034,9.034,0,0,0-.426-2.954,6.126,6.126,0,0,0-1.089-1.995,4.241,4.241,0,0,0-1.5-1.146,4.042,4.042,0,0,0-1.643-.369,4.617,4.617,0,0,0-1.9.424,6.421,6.421,0,0,0-1.736,1.165,7.287,7.287,0,0,0-1.367,1.736,7.627,7.627,0,0,0-.83,2.141.637.637,0,0,1,.257-.036,1.775,1.775,0,1,1-1.772,1.772Z" transform="translate(-316.787 -622.621)" fill="#fff"/>
      <path id="Path_2" data-name="Path 2" d="M435.611,633a1.764,1.764,0,0,1,1.774-1.772h.074a6.547,6.547,0,0,0-1.608-3.785,3.89,3.89,0,0,0-2.824-1.237,4.793,4.793,0,0,0-2.493.775,7.646,7.646,0,0,0-2.308,2.308,13.272,13.272,0,0,0-1.681,3.841,20.163,20.163,0,0,0-.645,5.411c0,.295.005.585.017.868s.019.561.019.832a6.1,6.1,0,0,1,.573-1.5,4.53,4.53,0,0,1,1.052-1.292,5.12,5.12,0,0,1,1.662-.925,7.42,7.42,0,0,1,2.438-.35,9.555,9.555,0,0,1,3.637.628,7.749,7.749,0,0,1,2.567,1.662,6.549,6.549,0,0,1,1.532,2.383,7.856,7.856,0,0,1,.5,2.75,8.063,8.063,0,0,1-.554,2.918,7.893,7.893,0,0,1-1.625,2.586,8.03,8.03,0,0,1-2.659,1.846,8.975,8.975,0,0,1-3.656.7,7.53,7.53,0,0,1-3.378-.813,8.554,8.554,0,0,1-2.937-2.457,13.034,13.034,0,0,1-2.088-4.1,18.69,18.69,0,0,1-.794-5.742,16.032,16.032,0,0,1,.942-5.725,13.231,13.231,0,0,1,2.419-4.136,10.147,10.147,0,0,1,3.306-2.512,8.5,8.5,0,0,1,3.6-.849,6.958,6.958,0,0,1,2.529.462,5.743,5.743,0,0,1,2.105,1.4,7.058,7.058,0,0,1,1.46,2.364,9.586,9.586,0,0,1,.59,3.306V633a1.773,1.773,0,1,1-3.546,0Zm-3.877,17.913a2.889,2.889,0,0,0,1.81-.666,6.106,6.106,0,0,0,1.494-1.772,10.391,10.391,0,0,0,1.035-2.548,11.446,11.446,0,0,0,.388-2.992,10.5,10.5,0,0,0-.242-2.271,6.116,6.116,0,0,0-.756-1.92,4.051,4.051,0,0,0-1.33-1.33,3.68,3.68,0,0,0-1.957-.5,6.261,6.261,0,0,0-3.232.7,4.688,4.688,0,0,0-1.718,1.68,5.479,5.479,0,0,0-.683,2.067,16.213,16.213,0,0,0-.129,1.865c0,.223-.005.426-.017.611a1.5,1.5,0,0,0,.055.535,11.6,11.6,0,0,0,2.05,4.931,3.791,3.791,0,0,0,2.9,1.643.73.73,0,0,0,.166-.019A.89.89,0,0,1,431.734,650.917Z" transform="translate(-402.853 -623.772)" fill="#fff"/>
      <path id="Path_3" data-name="Path 3" d="M552.05,639.365a18.74,18.74,0,0,1-.794,5.742,13.028,13.028,0,0,1-2.088,4.1,8.731,8.731,0,0,1-2.954,2.476,7.258,7.258,0,0,1-6.739,0,8.778,8.778,0,0,1-2.937-2.476,13.031,13.031,0,0,1-2.088-4.1,18.69,18.69,0,0,1-.794-5.742,18.375,18.375,0,0,1,.794-5.687,13.12,13.12,0,0,1,2.088-4.082,8.588,8.588,0,0,1,2.937-2.455,7.392,7.392,0,0,1,6.739,0,8.545,8.545,0,0,1,2.954,2.455,13.116,13.116,0,0,1,2.088,4.082A18.424,18.424,0,0,1,552.05,639.365Zm-14.7,0a27.056,27.056,0,0,0,.48,5.43,15.85,15.85,0,0,0,1.256,3.877A6.662,6.662,0,0,0,540.859,651a3.051,3.051,0,0,0,4.063,0,6.665,6.665,0,0,0,1.772-2.328,15.931,15.931,0,0,0,1.256-3.877,27.186,27.186,0,0,0,.48-5.43,26.687,26.687,0,0,0-.48-5.373,15.648,15.648,0,0,0-1.256-3.842,6.665,6.665,0,0,0-1.772-2.307,3.046,3.046,0,0,0-4.063,0,6.662,6.662,0,0,0-1.772,2.307,15.569,15.569,0,0,0-1.256,3.842A26.559,26.559,0,0,0,537.351,639.365Z" transform="translate(-493.845 -624.592)" fill="#fff"/>
      <path id="Path_4" data-name="Path 4" d="M722.573,667.535a4.383,4.383,0,0,0-1.68.24.963.963,0,0,0-.537.98v.331a.888.888,0,0,0,.074.333l3.841,14.737,3.915-15a3.014,3.014,0,0,0,.074-.554.839.839,0,0,0-.5-.849,4.1,4.1,0,0,0-1.57-.222v-.369H732.1v.369a4.82,4.82,0,0,0-2.124.369,2.634,2.634,0,0,0-1.125,1.663l-4.174,16.065h-3.694L718.4,675.7l-2.585,9.935H712.12l-4.1-15.77a3.063,3.063,0,0,0-1.144-1.884,4.406,4.406,0,0,0-2.217-.443v-.369h9.048v.369a4.379,4.379,0,0,0-1.679.24.963.963,0,0,0-.537.98v.331a.888.888,0,0,0,.074.333l3.841,14.737,2.623-9.862-1.846-7.128h6.389Z" transform="translate(-633.456 -657.933)" fill="#fff"/>
      <path id="Path_5" data-name="Path 5" d="M866.224,644.2a7.851,7.851,0,0,0,1.182-.074,1.743,1.743,0,0,0,.776-.295,1.343,1.343,0,0,0,.443-.628,3.836,3.836,0,0,0,.185-1.035v-6.758q0-1.514-.057-3.12a13.034,13.034,0,0,0-.405-2.918,5.2,5.2,0,0,0-1.089-2.143,2.674,2.674,0,0,0-2.107-.83,2.894,2.894,0,0,0-1.808.535,3.84,3.84,0,0,0-1.108,1.328,6.506,6.506,0,0,0-.592,1.718,11.311,11.311,0,0,0-.221,1.7v10.194q0,1.478.554,1.9a3.5,3.5,0,0,0,2.031.424v.369h-8.863V644.2a3.507,3.507,0,0,0,2.031-.424q.554-.424.554-1.9V619.311a2.129,2.129,0,0,0-.628-1.681,3.585,3.585,0,0,0-1.957-.388v-.369h6.279v11.376a5.221,5.221,0,0,1,1.348-1.829,3.5,3.5,0,0,1,2.381-.757,8.292,8.292,0,0,1,4.267.906,5.519,5.519,0,0,1,2.179,2.309,8.308,8.308,0,0,1,.794,3.138q.111,1.737.11,3.4v6.758a3.076,3.076,0,0,0,.148,1.035,1.32,1.32,0,0,0,.443.628,1.746,1.746,0,0,0,.794.295,8.218,8.218,0,0,0,1.2.074v.369h-8.863Z" transform="translate(-756.316 -616.873)" fill="#fff"/>
      <path id="Path_6" data-name="Path 6" d="M964.989,634.485h6.279v16.065a3.083,3.083,0,0,0,.146,1.035,1.333,1.333,0,0,0,.444.628,1.754,1.754,0,0,0,.794.295,8.248,8.248,0,0,0,1.2.074v.369h-8.863v-.369a3.509,3.509,0,0,0,2.031-.424q.554-.424.554-1.9V637.182q0-1.478-.554-1.9a3.522,3.522,0,0,0-2.031-.424Zm2.215-5.133a2.206,2.206,0,1,1,.647,1.57A2.137,2.137,0,0,1,967.2,629.352Z" transform="translate(-845.995 -625.253)" fill="#fff"/>
      <path id="Path_7" data-name="Path 7" d="M1020.753,636.188v5.687h2.585v.739h-2.585v13.96a3.828,3.828,0,0,0,.688,2.4,1.872,1.872,0,0,0,1.436.775,2,2,0,0,0,1.506-.775,3.85,3.85,0,0,0,.8-2.328h.369c0,.05-.019.271-.055.666a3.581,3.581,0,0,1-.39,1.254,3.656,3.656,0,0,1-1.037,1.22,3.115,3.115,0,0,1-1.967.554,5.56,5.56,0,0,1-3.747-1.127,4.731,4.731,0,0,1-1.3-3.749V642.613h-2.586v-.739h.443a4.411,4.411,0,0,0,1.995-.424,4.9,4.9,0,0,0,1.441-1.071,6.1,6.1,0,0,0,.959-1.384,10,10,0,0,0,.573-1.367,11.417,11.417,0,0,0,.35-1.441Z" transform="translate(-886.396 -632.642)" fill="#fff"/>
      <path id="Path_8" data-name="Path 8" d="M1075.515,669.108a7.5,7.5,0,0,1,2.7-2.975,6.448,6.448,0,0,1,3.361-.978,6.183,6.183,0,0,1,2.659.609,6.694,6.694,0,0,1,2.29,1.81,9.317,9.317,0,0,1,1.606,3.011,13.169,13.169,0,0,1,.609,4.21h-10.82a18.206,18.206,0,0,0,.369,3.915,10.736,10.736,0,0,0,.942,2.733,4.536,4.536,0,0,0,1.328,1.607,2.637,2.637,0,0,0,1.534.535,6.562,6.562,0,0,0,1.31-.147,5.764,5.764,0,0,0,1.422-.5,4.824,4.824,0,0,0,1.256-.906,3.354,3.354,0,0,0,.813-1.329l.7.849a5.436,5.436,0,0,1-2.345,2.124,6.963,6.963,0,0,1-3.047.719,7.631,7.631,0,0,1-2.918-.59,7.3,7.3,0,0,1-2.568-1.791,8.982,8.982,0,0,1-1.81-3.011,12,12,0,0,1-.683-4.246,13.6,13.6,0,0,1,.333-3.14A9.525,9.525,0,0,1,1075.515,669.108Zm3.251,0a12.01,12.01,0,0,0-.59,2.177,17.831,17.831,0,0,0-.259,2.771h7.718a20.108,20.108,0,0,0-.406-3.546,10.046,10.046,0,0,0-.868-2.529,4.441,4.441,0,0,0-1.2-1.515,2.252,2.252,0,0,0-1.367-.5,2.4,2.4,0,0,0-1.661.794A6.114,6.114,0,0,0,1078.766,669.108Z" transform="translate(-935.177 -656.292)" fill="#fff"/>
      <path id="Path_9" data-name="Path 9" d="M1160.128,665.194h6.279v2.143a5.242,5.242,0,0,1,1.347-1.829,3.507,3.507,0,0,1,2.383-.757,8.289,8.289,0,0,1,4.265.906,5.508,5.508,0,0,1,2.179,2.309,8.271,8.271,0,0,1,.794,3.138q.111,1.737.112,3.4v6.758a3.076,3.076,0,0,0,.147,1.035,1.331,1.331,0,0,0,.443.628,1.754,1.754,0,0,0,.794.3,8.257,8.257,0,0,0,1.2.074v.369h-8.863v-.369a7.869,7.869,0,0,0,1.182-.074,1.728,1.728,0,0,0,.775-.3,1.331,1.331,0,0,0,.443-.628,3.7,3.7,0,0,0,.185-1.035V674.5q0-1.514-.055-3.119a13.028,13.028,0,0,0-.405-2.918,5.2,5.2,0,0,0-1.09-2.143,2.67,2.67,0,0,0-2.105-.83,2.9,2.9,0,0,0-1.81.535,3.876,3.876,0,0,0-1.108,1.329,6.564,6.564,0,0,0-.59,1.718,11.3,11.3,0,0,0-.222,1.7v10.194q0,1.478.554,1.9a3.507,3.507,0,0,0,2.031.424v.369h-8.863v-.369a7.849,7.849,0,0,0,1.182-.074,1.745,1.745,0,0,0,.777-.3,1.345,1.345,0,0,0,.443-.628,3.831,3.831,0,0,0,.185-1.035V667.632a2.132,2.132,0,0,0-.628-1.681,3.594,3.594,0,0,0-1.958-.388Z" transform="translate(-1005.312 -655.962)" fill="#fff"/>
      <path id="Path_10" data-name="Path 10" d="M1269.973,634.485h6.279v16.065a3.075,3.075,0,0,0,.148,1.035,1.32,1.32,0,0,0,.443.628,1.745,1.745,0,0,0,.794.295,8.21,8.21,0,0,0,1.2.074v.369h-8.863v-.369a3.515,3.515,0,0,0,2.033-.424q.554-.424.554-1.9V637.182q0-1.478-.554-1.9a3.528,3.528,0,0,0-2.033-.424Zm2.217-5.133a2.2,2.2,0,1,1,.645,1.57A2.136,2.136,0,0,1,1272.19,629.352Z" transform="translate(-1094.992 -625.253)" fill="#fff"/>
      <path id="Path_11" data-name="Path 11" d="M1319.458,665.194h6.279v2.143a5.241,5.241,0,0,1,1.348-1.829,3.507,3.507,0,0,1,2.383-.757,8.289,8.289,0,0,1,4.265.906,5.507,5.507,0,0,1,2.179,2.309,8.273,8.273,0,0,1,.794,3.138q.111,1.737.112,3.4v6.758a3.076,3.076,0,0,0,.147,1.035,1.332,1.332,0,0,0,.443.628,1.755,1.755,0,0,0,.794.3,8.256,8.256,0,0,0,1.2.074v.369h-8.863v-.369a7.866,7.866,0,0,0,1.182-.074,1.729,1.729,0,0,0,.775-.3,1.332,1.332,0,0,0,.443-.628,3.707,3.707,0,0,0,.185-1.035V674.5q0-1.514-.055-3.119a13.028,13.028,0,0,0-.406-2.918,5.2,5.2,0,0,0-1.09-2.143,2.67,2.67,0,0,0-2.1-.83,2.9,2.9,0,0,0-1.81.535,3.879,3.879,0,0,0-1.108,1.329,6.559,6.559,0,0,0-.59,1.718,11.32,11.32,0,0,0-.223,1.7v10.194q0,1.478.554,1.9a3.508,3.508,0,0,0,2.031.424v.369h-8.863v-.369a7.853,7.853,0,0,0,1.182-.074,1.743,1.743,0,0,0,.776-.3,1.343,1.343,0,0,0,.443-.628,3.836,3.836,0,0,0,.185-1.035V667.632a2.132,2.132,0,0,0-.628-1.681,3.594,3.594,0,0,0-1.958-.388Z" transform="translate(-1135.393 -655.962)" fill="#fff"/>
      <path id="Path_12" data-name="Path 12" d="M1430.225,671.347a1.515,1.515,0,1,1,3.03,0,1.436,1.436,0,0,1-.388,1.034,1.618,1.618,0,0,1-1.016.479,3.532,3.532,0,0,0,1.791,1.57,7.251,7.251,0,0,0,2.9.535,16.909,16.909,0,0,0,2.714-.2,6.447,6.447,0,0,0,2.124-.7,3.608,3.608,0,0,0,1.367-1.311,3.944,3.944,0,0,0,.48-2.031,1.9,1.9,0,0,0-.887-1.865,4.747,4.747,0,0,0-2.215-.462,22.281,22.281,0,0,0-2.733.185,22.718,22.718,0,0,1-2.843.185,8.883,8.883,0,0,1-1.774-.166,3.765,3.765,0,0,1-1.439-.609,2.933,2.933,0,0,1-.98-1.22,4.988,4.988,0,0,1-.35-2.031,4.4,4.4,0,0,1,.24-1.532,4.279,4.279,0,0,1,.609-1.127,4.223,4.223,0,0,1,.757-.776,4.483,4.483,0,0,1,.683-.442,7.564,7.564,0,0,1-2.16-2.419,7.024,7.024,0,0,1-.832-3.529,7.506,7.506,0,0,1,.666-3.249,6.719,6.719,0,0,1,1.772-2.328,7.567,7.567,0,0,1,2.53-1.384,9.3,9.3,0,0,1,2.9-.462,9.511,9.511,0,0,1,2.714.388,7.4,7.4,0,0,1,2.381,1.2,10.279,10.279,0,0,0,.8-1.182,9.988,9.988,0,0,0,.683-1.439h-.223a1.515,1.515,0,1,1,0-3.03,1.323,1.323,0,0,1,1.127.518,2.1,2.1,0,0,1,.388,1.292,4.321,4.321,0,0,1-.2,1.33,6.429,6.429,0,0,1-.518,1.182,8.667,8.667,0,0,1-.683,1.034c-.245.321-.48.6-.7.851a7.11,7.11,0,0,1,1.551,2.234,7.354,7.354,0,0,1,.59,3.045,7.6,7.6,0,0,1-.664,3.287,6.706,6.706,0,0,1-1.774,2.328,7.6,7.6,0,0,1-2.51,1.385,9.187,9.187,0,0,1-2.881.461,8.791,8.791,0,0,1-4.172-1.034,2.478,2.478,0,0,0-1.09.959,2.511,2.511,0,0,0-.424,1.366,1.8,1.8,0,0,0,.573,1.311,2.736,2.736,0,0,0,1.975.573,21.1,21.1,0,0,0,2.383-.148,23.935,23.935,0,0,1,2.64-.147,11,11,0,0,1,2.141.2,4.741,4.741,0,0,1,1.829.756,3.9,3.9,0,0,1,1.273,1.551,5.972,5.972,0,0,1,.482,2.586,4.141,4.141,0,0,1-.683,2.4,5.57,5.57,0,0,1-1.829,1.662,8.8,8.8,0,0,1-2.659.978,15.338,15.338,0,0,1-3.138.314,10.421,10.421,0,0,1-2.217-.24,7.661,7.661,0,0,1-2.031-.738,4.348,4.348,0,0,1-1.5-1.292,3.108,3.108,0,0,1-.573-1.865Zm2.881-16.417a10.99,10.99,0,0,0,.35,2.926,6.755,6.755,0,0,0,.942,2.093,4.231,4.231,0,0,0,1.33,1.258,2.925,2.925,0,0,0,3.009.019,3.8,3.8,0,0,0,1.275-1.241,7.33,7.33,0,0,0,.9-2.093,11.066,11.066,0,0,0,.35-2.963,10.918,10.918,0,0,0-.35-2.926,7.028,7.028,0,0,0-.923-2.091,4.08,4.08,0,0,0-1.311-1.26,2.993,2.993,0,0,0-1.513-.426,2.891,2.891,0,0,0-1.5.426,4.159,4.159,0,0,0-1.294,1.26,7.025,7.025,0,0,0-.923,2.091A11,11,0,0,0,1433.107,654.93Z" transform="translate(-1225.072 -638.551)" fill="#fff"/>
    </g>
    <rect id="Rectangle_4" data-name="Rectangle 4" width="1.592" height="80.858" transform="translate(381.134 489.504)" fill="#fff"/>
  </g>
</svg>
